<svg xmlns="http://www.w3.org/2000/svg" version="1.1" xmlns:xlink="http://www.w3.org/1999/xlink" xmlns:svgjs="http://svgjs.dev/svgjs" width="1000" height="1000" viewBox="0 0 1000 1000"><rect width="1000" height="1000" fill="#ffffff"></rect><g transform="matrix(0.7,0,0,0.7,149.5757575892058,409.90625461453465)"><svg viewBox="0 0 396 102" data-background-color="#ffffff" preserveAspectRatio="xMidYMid meet" height="257" width="1000" xmlns="http://www.w3.org/2000/svg" xmlns:xlink="http://www.w3.org/1999/xlink"><defs></defs><g id="tight-bounds" transform="matrix(1,0,0,1,0.240000007607847,0.08150099676191758)"><svg viewBox="0 0 395.5199999999999 101.83699622117646" height="101.83699622117646" width="395.5199999999999"><g><svg viewBox="0 0 395.5199999999999 101.83699622117646" height="101.83699622117646" width="395.5199999999999"><g transform="matrix(1,0,0,1,0,62.93934916235293)"><svg viewBox="0 0 395.5199999999999 38.89764705882352" height="38.89764705882352" width="395.5199999999999"><g><svg viewBox="0 0 395.5199999999999 38.89764705882352" height="38.89764705882352" width="395.5199999999999"><g><svg viewBox="0 0 395.5199999999999 38.89764705882352" height="38.89764705882352" width="395.5199999999999"><g transform="matrix(1,0,0,1,0,0)"><svg width="395.5199999999999" viewBox="1.6100000143051147 -36.060001373291016 371.8500061035156 36.56999969482422" height="38.89764705882352" data-palette-color="#398378"><path d="M15.53 0L1.61 0 1.61-3.76 5.49-4.49 5.49-31.03 1.61-31.76 1.61-35.55 5.49-35.55 18.29-35.55Q22.27-35.55 25.11-34.16 27.95-32.76 29.47-30.29 30.98-27.81 30.98-24.49L30.98-24.49Q30.98-21.17 29.47-18.69 27.95-16.21 25.11-14.84 22.27-13.48 18.29-13.48L18.29-13.48 11.65-13.48 11.65-4.49 15.53-3.76 15.53 0ZM11.65-30.79L11.65-18.24 18.29-18.24Q21.56-18.24 23.19-20 24.83-21.75 24.83-24.44L24.83-24.44Q24.83-27.17 23.19-28.98 21.56-30.79 18.29-30.79L18.29-30.79 11.65-30.79ZM59.93 0L33.66 0 33.66-3.76 37.55-4.49 37.55-31.03 33.66-31.76 33.66-35.55 37.55-35.55 43.7-35.55 47.87-35.55 47.87-31.76 43.7-31.03 43.7-4.71 54.81-4.71 55.22-10.08 59.93-10.08 59.93 0ZM77.88-12.74L64.89-12.74 64.89-17.5 77.88-17.5 77.88-12.74ZM99.58 0L94.01 0 85.73-31.4 82.37-31.76 82.37-35.55 95.5-35.55 95.5-31.76 91.72-31.2 96.09-12.94 96.99-9.2 97.14-9.18 98.26-12.94 105.34-35.55 110.15-35.55 117.42-12.57 118.5-8.94 118.64-8.94 119.6-12.57 124.04-31.2 120.04-31.76 120.04-35.55 132.93-35.55 132.93-31.76 129.78-31.4 121.6 0 115.93 0 108.78-22.39 107.88-25.61 107.73-25.61 106.78-22.34 99.58 0ZM150.75 0.51L150.75 0.51Q147.21 0.51 144.35-0.82 141.49-2.15 139.46-4.57 137.42-6.98 136.32-10.28 135.22-13.57 135.22-17.5L135.22-17.5 135.22-18.04Q135.22-21.95 136.32-25.24 137.42-28.54 139.46-30.97 141.49-33.4 144.35-34.73 147.21-36.06 150.72-36.06L150.72-36.06Q154.36-36.06 157.24-34.73 160.12-33.4 162.15-30.97 164.17-28.54 165.25-25.24 166.32-21.95 166.32-18.04L166.32-18.04 166.32-17.5Q166.32-13.57 165.25-10.28 164.17-6.98 162.15-4.57 160.12-2.15 157.24-0.82 154.36 0.51 150.75 0.51ZM150.75-4.37L150.75-4.37Q153.97-4.37 156.06-6.02 158.14-7.67 159.16-10.62 160.17-13.57 160.17-17.5L160.17-17.5 160.17-18.09Q160.17-21.97 159.15-24.9 158.12-27.83 156.03-29.49 153.95-31.15 150.72-31.15L150.72-31.15Q147.65-31.15 145.57-29.49 143.5-27.83 142.45-24.9 141.4-21.97 141.4-18.09L141.4-18.09 141.4-17.5Q141.4-13.6 142.45-10.63 143.5-7.67 145.58-6.02 147.67-4.37 150.75-4.37ZM183.43 0L169.52 0 169.52-3.76 173.4-4.49 173.4-31.03 169.52-31.76 169.52-35.55 185.95-35.55Q189.95-35.55 192.79-34.31 195.62-33.08 197.11-30.79 198.6-28.49 198.6-25.24L198.6-25.24Q198.6-22.12 197.12-19.8 195.64-17.48 192.99-16.2 190.34-14.92 186.78-14.87L186.78-14.87 179.55-14.79 179.55-4.49 183.43-3.76 183.43 0ZM200.16 0L192.64 0 185.85-16.36 191.61-17.31 197.38-4.39 200.16-3.81 200.16 0ZM179.55-30.79L179.55-19.58 185.68-19.58Q189.15-19.58 190.81-20.98 192.47-22.39 192.47-25.07L192.47-25.07Q192.47-27.69 190.86-29.24 189.25-30.79 185.95-30.79L185.95-30.79 179.55-30.79ZM233.48-31.1L212.68-9.38 209.46-13.09 226.65-31.35 226.72-31.45 223.57-31.76 223.57-35.55 236.83-35.55 236.83-31.76 233.48-31.1ZM217.44 0L203.65 0 203.65-3.76 207.53-4.49 207.53-31.03 203.65-31.76 203.65-35.55 217.44-35.55 217.44-31.76 213.68-31.03 213.68-4.49 217.44-3.76 217.44 0ZM238.1 0L224.35 0 224.35-3.76 227.5-4.08 227.5-4.1 218.12-17.04 221.98-21.36 234.7-4.37 238.1-3.76 238.1 0ZM254.72 0.51L254.72 0.51Q251.08 0.51 247.96-0.39 244.83-1.29 241.88-3.39L241.88-3.39 241.88-11.57 246.64-11.57 247.42-6.27Q248.71-5.35 250.61-4.79 252.5-4.22 254.72-4.22L254.72-4.22Q256.89-4.22 258.37-4.85 259.85-5.47 260.63-6.59 261.41-7.71 261.41-9.25L261.41-9.25Q261.41-10.67 260.72-11.77 260.04-12.87 258.45-13.73 256.87-14.6 254.16-15.33L254.16-15.33Q250.18-16.41 247.5-17.87 244.83-19.34 243.48-21.39 242.12-23.44 242.12-26.22L242.12-26.22Q242.12-29.08 243.67-31.27 245.22-33.47 247.98-34.74 250.74-36.01 254.35-36.04L254.35-36.04Q258.31-36.08 261.35-35.01 264.39-33.94 266.49-32.2L266.49-32.2 266.49-24.56 261.82-24.56 260.94-29.54Q259.94-30.25 258.34-30.75 256.75-31.25 254.57-31.25L254.57-31.25Q252.72-31.25 251.3-30.64 249.88-30.03 249.08-28.92 248.27-27.81 248.27-26.27L248.27-26.27Q248.27-24.93 248.98-23.93 249.69-22.92 251.35-22.11 253.01-21.29 255.84-20.46L255.84-20.46Q261.63-18.92 264.61-16.21 267.59-13.5 267.59-9.3L267.59-9.3Q267.59-6.35 265.99-4.14 264.39-1.93 261.49-0.71 258.6 0.51 254.72 0.51ZM284.87 0L270.95 0 270.95-3.76 274.83-4.49 274.83-31.03 270.95-31.76 270.95-35.55 284.87-35.55 284.87-31.76 280.99-31.03 280.99-19.95 296.54-19.95 296.54-31.03 292.66-31.76 292.66-35.55 296.54-35.55 302.67-35.55 306.55-35.55 306.55-31.76 302.67-31.03 302.67-4.49 306.55-3.76 306.55 0 292.66 0 292.66-3.76 296.54-4.49 296.54-15.16 280.99-15.16 280.99-4.49 284.87-3.76 284.87 0ZM325.32 0.51L325.32 0.51Q321.78 0.51 318.92-0.82 316.07-2.15 314.03-4.57 311.99-6.98 310.89-10.28 309.79-13.57 309.79-17.5L309.79-17.5 309.79-18.04Q309.79-21.95 310.89-25.24 311.99-28.54 314.03-30.97 316.07-33.4 318.92-34.73 321.78-36.06 325.29-36.06L325.29-36.06Q328.93-36.06 331.81-34.73 334.69-33.4 336.72-30.97 338.75-28.54 339.82-25.24 340.9-21.95 340.9-18.04L340.9-18.04 340.9-17.5Q340.9-13.57 339.82-10.28 338.75-6.98 336.72-4.57 334.69-2.15 331.81-0.82 328.93 0.51 325.32 0.51ZM325.32-4.37L325.32-4.37Q328.54-4.37 330.63-6.02 332.72-7.67 333.73-10.62 334.74-13.57 334.74-17.5L334.74-17.5 334.74-18.09Q334.74-21.97 333.72-24.9 332.69-27.83 330.6-29.49 328.52-31.15 325.29-31.15L325.29-31.15Q322.22-31.15 320.14-29.49 318.07-27.83 317.02-24.9 315.97-21.97 315.97-18.09L315.97-18.09 315.97-17.5Q315.97-13.6 317.02-10.63 318.07-7.67 320.16-6.02 322.24-4.37 325.32-4.37ZM358.01 0L344.09 0 344.09-3.76 347.97-4.49 347.97-31.03 344.09-31.76 344.09-35.55 347.97-35.55 360.77-35.55Q364.75-35.55 367.59-34.16 370.43-32.76 371.95-30.29 373.46-27.81 373.46-24.49L373.46-24.49Q373.46-21.17 371.95-18.69 370.43-16.21 367.59-14.84 364.75-13.48 360.77-13.48L360.77-13.48 354.13-13.48 354.13-4.49 358.01-3.76 358.01 0ZM354.13-30.79L354.13-18.24 360.77-18.24Q364.04-18.24 365.67-20 367.31-21.75 367.31-24.44L367.31-24.44Q367.31-27.17 365.67-28.98 364.04-30.79 360.77-30.79L360.77-30.79 354.13-30.79Z" opacity="1" transform="matrix(1,0,0,1,0,0)" fill="#398378" class="undefined-text-0" data-fill-palette-color="primary" id="text-0"></path></svg></g></svg></g></svg></g></svg></g><g transform="matrix(1,0,0,1,155.85472611303342,0)"><svg viewBox="0 0 83.8105477739331 53.75654823529411" height="53.75654823529411" width="83.8105477739331"><g><svg xmlns="http://www.w3.org/2000/svg" xmlns:xlink="http://www.w3.org/1999/xlink" version="1.1" x="8" y="0" viewBox="1 11 96.5 76.5" style="enable-background:new 0 0 100 100;" xml:space="preserve" height="53.75654823529411" width="67.8105477739331" class="icon-icon-0" data-fill-palette-color="accent" id="icon-0"><g fill="#398378" data-fill-palette-color="accent"><path d="M30.9 65.4c0 4.1 3.4 7.5 7.5 7.5 4.2 0 7.5-3.4 7.5-7.5 0-4.1-3.4-7.5-7.5-7.5C34.3 57.9 30.9 61.3 30.9 65.4zM43.3 65.4c0 2.7-2.2 4.9-4.9 4.9-2.7 0-4.9-2.2-4.9-4.9 0-2.7 2.2-4.9 4.9-4.9C41.1 60.5 43.3 62.7 43.3 65.4z" fill="#398378" data-fill-palette-color="accent"></path><path d="M54 65.4c0 4.1 3.4 7.5 7.5 7.5 4.2 0 7.5-3.4 7.5-7.5 0-4.1-3.4-7.5-7.5-7.5S54 61.3 54 65.4zM66.4 65.4c0 2.7-2.2 4.9-4.9 4.9s-4.9-2.2-4.9-4.9c0-2.7 2.2-4.9 4.9-4.9S66.4 62.7 66.4 65.4z" fill="#398378" data-fill-palette-color="accent"></path><path d="M84.6 72.9c4.1 0 7.5-3.4 7.5-7.5 0-4.1-3.4-7.5-7.5-7.5-4.1 0-7.5 3.4-7.5 7.5C77.1 69.5 80.5 72.9 84.6 72.9zM84.6 60.5c2.7 0 4.9 2.2 4.9 4.9 0 2.7-2.2 4.9-4.9 4.9-2.7 0-4.9-2.2-4.9-4.9C79.7 62.7 81.9 60.5 84.6 60.5z" fill="#398378" data-fill-palette-color="accent"></path><path d="M94.9 75.8c-1.5-1.6-3.3-2.5-5.4-2.7-0.3-0.1-0.6 0-0.9 0.2 0 0-1.4 1.1-3.4 1.2h-0.1c-0.1 0-0.1 0-0.2 0-0.1 0-0.1 0-0.2 0-0.1 0-0.3 0-0.4 0-2.1-0.1-3.6-1.2-3.6-1.2-0.3-0.1-0.6-0.2-0.9-0.2-2 0.2-3.9 1.1-5.4 2.7-0.5 0.6-1 1.2-1.4 2-0.4-0.7-0.8-1.3-1.4-1.9-1.6-1.6-3.4-2.5-5.5-2.7-0.3-0.1-0.6 0-0.9 0.2 0 0-1.1 0.8-2.7 1.1-0.1 0-0.2 0-0.3 0H62c-0.1 0-0.1 0-0.2 0-0.1 0-0.1 0-0.2 0-0.1 0-0.3 0-0.4 0-2-0.1-3.5-1.2-3.5-1.2-0.3-0.1-0.6-0.2-0.9-0.2-2.1 0.2-4 1.1-5.5 2.7-0.5 0.6-1 1.2-1.4 1.9-0.4-0.6-0.8-1.2-1.3-1.8-1.6-1.6-3.4-2.5-5.5-2.7-0.3-0.1-0.6 0-0.9 0.2 0 0-1.2 0.9-2.8 1.1-0.1 0-0.3 0-0.5 0 0 0 0 0-0.1 0-2.5 0.2-4.4-1.2-4.4-1.2-0.3-0.1-0.6-0.2-0.9-0.2-2 0.2-3.9 1.1-5.4 2.7-1.6 1.8-2.6 4.2-2.6 6.7v3.7c0 0.3 0.2 0.7 0.4 0.9 0.2 0.3 0.6 0.4 0.9 0.4h10.8 1.6 10.7H50h10.7 1.6H73h0.1 10.7 1.6 10.8c0.3 0 0.7-0.1 0.9-0.4 0.3-0.2 0.4-0.6 0.4-0.9v-3.7C97.5 79.9 96.6 77.5 94.9 75.8zM94.9 84.9h-9.5-1.6H73.1 73 62.3h-1.6H50h-0.1H37.6c0 0 0 0 0 0h-9.5v-2.4c0-1.9 0.7-3.6 1.9-4.9 1-1.1 2.1-1.7 3.4-1.9 0.7 0.4 1.9 1.1 3.6 1.3 0.2 0.1 0.3 0.2 0.5 0.2h0.2c0.1 0 0.2 0 0.3 0 0.4 0 0.7 0 1 0 2-0.2 3.6-1 4.4-1.4 1.3 0.3 2.4 0.9 3.4 1.9 1.1 1.1 1.8 2.8 1.9 4.5 0 0.6 0.4 1 0.9 1.1 0.1 0 0.3 0.1 0.4 0.1 0.4 0 0.7-0.2 0.9-0.4 0.2-0.2 0.4-0.6 0.3-0.9 0.1-1.7 0.8-3.3 1.9-4.5 1-1.1 2.1-1.7 3.4-1.9 0.7 0.4 1.9 1 3.5 1.3 0.2 0.1 0.3 0.2 0.5 0.2h0.2c0.1 0 0.3 0 0.3 0 0.4 0 0.7 0 1 0 2-0.2 3.6-1 4.4-1.4 1.3 0.3 2.4 0.9 3.4 1.9 1.1 1.2 1.8 2.8 1.9 4.5 0 0.6 0.5 1.1 1.1 1.2 0 0 0 0 0 0 0.1 0 0.1 0 0.2 0 0 0 0 0 0 0 0 0 0 0 0.1 0 0.3 0 0.6-0.2 0.9-0.5 0.1-0.1 0.1-0.2 0.2-0.3 0 0 0-0.1 0-0.1 0 0 0 0 0 0 0-0.1 0.1-0.3 0.1-0.4 0.1-1.7 0.8-3.3 1.9-4.5 1-1.1 2.1-1.7 3.4-1.9 0.7 0.5 2.1 1.2 4 1.4 0 0 0.1 0 0.1 0 0.1 0 0.2 0 0.3 0 0 0 0.1 0 0.1 0 0 0 0 0 0 0 0.3 0 0.6 0 0.9 0 0.1 0 0.2 0 0.3 0h0.2c0.2 0 0.4-0.1 0.5-0.1 1.6-0.3 2.9-0.9 3.6-1.3 1.3 0.3 2.4 0.9 3.4 1.9 1.2 1.3 1.9 3 1.9 4.9V84.9z" fill="#398378" data-fill-palette-color="accent"></path><path d="M26.9 69.9c0.2-0.3 0.4-0.7 0.4-1.1v-3.9c0-5.9-0.1-10.2-0.2-13.4l5.1 1.7c0.2 0.1 0.3 0.1 0.5 0.1 0.5 0 1-0.2 1.3-0.6l1.5-2.1c0.2 0.1 0.4 0.1 0.6 0.1h35.7c3.1 0 5.6-2.5 5.6-5.5V16.6c0-3.1-2.5-5.6-5.6-5.6h-49c-3.1 0-5.6 2.5-5.6 5.6v5.6c-1-0.4-2-0.6-3.1-0.6-4.4 0-8 3.6-8 8 0 4.4 3.6 8 8 8 4.5 0 8-3.6 8-8 0-2-0.8-3.9-2-5.3 0.1-0.2 0.1-0.3 0.1-0.5v-7.2c0-1.4 1.2-2.6 2.6-2.6h49c1.4 0 2.6 1.2 2.6 2.6v28.5c0 1.4-1.2 2.6-2.6 2.6H37.5l4.6-6.6c0.1-0.1 0.2-0.2 0.2-0.4 0.4-1.3 0.3-2.3-0.2-3.2-0.1-0.1-0.2-0.3-0.3-0.4l5.6-8.2c0.5-0.7 0.3-1.6-0.4-2.1s-1.6-0.3-2.1 0.4l-6 8.7c-1.4 0-2.7 0.7-3.6 2l-4.8 6.7-5.1-2.4c-0.2-0.4-0.5-0.8-0.8-1.1-1.6-1.7-3.4-2.7-5.6-2.9-0.4 0-0.8 0.1-1.1 0.3 0 0-1.4 1.1-3.4 1.2-0.1 0-0.2 0-0.4 0-0.1 0-0.2 0-0.4 0-2-0.1-3.4-1.2-3.4-1.2-0.3-0.2-0.7-0.3-1.1-0.3-2.2 0.2-4 1.2-5.6 2.9C2 43 1 45.5 1 48.2v20.7c0 0.4 0.2 0.8 0.4 1.1 0.3 0.2 0.7 0.4 1.1 0.4h10.8H15h10.8C26.2 70.4 26.7 70.2 26.9 69.9zM14.1 34.5c-2.7 0-5-2.2-5-5 0-2.7 2.2-5 5-5 2.8 0 5.1 2.2 5 5C19.1 32.2 16.9 34.5 14.1 34.5zM30.3 47.8c0.7 0.3 1.5 0.1 1.9-0.5l5.5-7.7c0.4-0.5 1-0.8 1.5-0.7 0 0 0 0 0.1 0 0 0 0 0 0 0 0.1 0.1 0.2 0.1 0.2 0.1s0.1 0.2 0 0.6L32 49.9l-5.2-1.7c-0.1-0.8-0.2-1.6-0.3-2.2L30.3 47.8zM24.2 67.4H13.3c-0.2 0-0.3 0-0.5 0.1H4.1V48.3c0-2 0.7-3.8 1.9-5.1 0.9-1 2-1.7 3.2-1.9 0.7 0.3 1.9 1 3.5 1.3 0.1 0.1 0.3 0.1 0.4 0.1 0.1 0 0.2 0 0.3 0 0.2 0 0.3 0 0.5 0 0.1 0 0.1 0 0.2 0 0.2 0 0.3 0 0.5 0 0.1 0 0.2 0 0.4 0 0.1 0 0.2 0 0.3 0 0.1 0 0.3-0.1 0.4-0.1 1.6-0.3 2.8-0.9 3.5-1.3 1.2 0.3 2.3 0.9 3.2 1.9 0.1 0.1 0.1 0.1 0.2 0.2 0.1 0.3 0.2 0.6 0.5 0.8 0.8 1.8 1.2 6.2 1.2 20.8V67.4z" fill="#398378" data-fill-palette-color="accent"></path><path d="M64.9 22H32.1c-0.9 0-1.6 0.7-1.6 1.6 0 0.9 0.7 1.6 1.6 1.6h32.7c0.9 0 1.8-0.7 1.8-1.6C66.6 22.7 65.8 22 64.9 22z" fill="#398378" data-fill-palette-color="accent"></path><path d="M64.8 30h-13c-0.9 0-1.6 0.7-1.6 1.6 0 0.9 0.7 1.6 1.6 1.6h13c0.9 0 1.7-0.7 1.7-1.6C66.5 30.7 65.7 30 64.8 30z" fill="#398378" data-fill-palette-color="accent"></path><path d="M64.8 37.3h-13c-0.9 0-1.6 0.7-1.6 1.6 0 0.9 0.7 1.6 1.6 1.6h13c0.9 0 1.7-0.7 1.7-1.6C66.5 38 65.7 37.3 64.8 37.3z" fill="#398378" data-fill-palette-color="accent"></path></g></svg></g></svg></g><g><rect width="155.85472611303342" height="3.5078299541364704" y="49.248718281157636" x="239.66527388696653" fill="#398378" data-fill-palette-color="accent"></rect><rect width="155.85472611303342" height="3.5078299541364704" y="49.248718281157636" x="0" fill="#398378" data-fill-palette-color="accent"></rect><rect width="155.85472611303342" height="3.5078299541364704" y="42.2330583728847" x="239.66527388696653" fill="#398378" data-fill-palette-color="accent"></rect><rect width="155.85472611303342" height="3.5078299541364704" y="42.2330583728847" x="0" fill="#398378" data-fill-palette-color="accent"></rect></g></svg></g></svg><rect width="395.5199999999999" height="101.83699622117646" fill="none" stroke="none" visibility="hidden"></rect></g></svg></g></svg>
